<svg xmlns="http://www.w3.org/2000/svg" width="135" height="69" fill="none" viewBox="0 0 135 69"><path fill="#fff" d="M23.3184 0.195312C24.209 0.195312 24.9648 0.511719 25.5859 1.14453C26.2188 1.76562 26.5352 2.52148 26.5352 3.41211C26.5352 4.31445 26.2188 5.08203 25.5859 5.71484C24.9648 6.33594 24.209 6.64648 23.3184 6.64648C22.4277 6.64648 21.666 6.33594 21.0332 5.71484C20.4121 5.08203 20.1016 4.32031 20.1016 3.42969C20.1016 2.55078 20.4238 1.79492 21.0684 1.16211C21.7129 0.517578 22.4629 0.195312 23.3184 0.195312ZM26.166 8.03516V21.0254C26.166 21.6465 26.2012 22.0273 26.2715 22.168C26.3418 22.3086 26.4648 22.4199 26.6406 22.502C26.8281 22.5723 27.2383 22.6074 27.8711 22.6074H28.8203V26H17.957V22.6074H18.8887C19.498 22.6074 19.8848 22.5781 20.0488 22.5195C20.2246 22.4492 20.3535 22.3379 20.4355 22.1855C20.5176 22.0332 20.5586 21.7285 20.5586 21.2715V12.8867H17.957V9.58203C18.8828 9.53516 19.7676 9.43555 20.6113 9.2832C21.4668 9.13086 22.2285 8.94922 22.8965 8.73828C23.3301 8.59766 23.8633 8.36328 24.4961 8.03516H26.166ZM31.3121 1.47852H51.773L54.568 9.23047L51.3863 10.373C50.8473 9.10742 50.2145 8.08789 49.4879 7.31445C48.773 6.54102 47.9762 6.03125 47.0973 5.78516C46.2301 5.52734 45.2164 5.39844 44.0563 5.39844H40.3121V11.5156H41.5426C42.4684 11.5156 43.0895 11.4512 43.4059 11.3223C43.734 11.1816 43.9684 10.9707 44.109 10.6895C44.2496 10.3965 44.3199 9.82227 44.3199 8.9668V8.03516H47.4488V18.4062H44.3199V17.3516C44.3199 16.6367 44.232 16.1152 44.0563 15.7871C43.8922 15.459 43.6637 15.2363 43.3707 15.1191C43.0777 15.002 42.4273 14.9434 41.4195 14.9434H40.3121V20.5684C40.3121 21.166 40.3414 21.5293 40.4 21.6582C40.4586 21.7871 40.5699 21.8867 40.734 21.957C40.9098 22.0273 41.2789 22.0625 41.8414 22.0625H43.898C45.4332 22.0625 46.7281 21.8457 47.7828 21.4121C48.8375 20.9668 49.775 20.2578 50.5953 19.2852C51.4273 18.3008 52.066 17.1348 52.5113 15.7871L55.7281 16.8945L52.5113 26H31.3121V22.6074H31.9273C32.7477 22.6074 33.2984 22.5488 33.5797 22.4316C33.8609 22.3145 34.0602 22.1094 34.1773 21.8164C34.2359 21.6406 34.2652 21.1426 34.2652 20.3223V6.96289C34.2652 6.23633 34.2125 5.76172 34.107 5.53906C34.0133 5.31641 33.8609 5.15234 33.65 5.04688C33.4391 4.92969 33.023 4.87109 32.402 4.87109H31.3121V1.47852ZM68.257 15.3652V14.0645C68.257 13.291 68.1926 12.7578 68.0637 12.4648C67.9348 12.1719 67.7004 11.9316 67.3605 11.7441C67.0207 11.5449 66.5988 11.4453 66.0949 11.4453C65.7082 11.4453 65.3566 11.5098 65.0402 11.6387C64.7238 11.7676 64.4719 11.9316 64.2844 12.1309C64.0969 12.3301 63.8801 12.7168 63.634 13.291C63.3176 14.0176 62.9367 14.5391 62.4914 14.8555C62.0578 15.1719 61.5422 15.3301 60.9445 15.3301C60.1945 15.3301 59.5793 15.0957 59.0988 14.627C58.6184 14.1582 58.3781 13.5781 58.3781 12.8867C58.3781 12.1016 58.6242 11.4043 59.1164 10.7949C59.7727 9.98633 60.7512 9.32422 62.052 8.80859C63.3527 8.29297 64.8176 8.03516 66.4465 8.03516C68.0754 8.03516 69.4582 8.29883 70.5949 8.82617C71.7434 9.35352 72.5402 9.98633 72.9855 10.7246C73.4426 11.4512 73.6711 12.5645 73.6711 14.0645V20.3574C73.6711 21.1309 73.7121 21.6289 73.7941 21.8516C73.8762 22.0625 74.052 22.25 74.3215 22.4141C74.591 22.5781 74.8898 22.6602 75.218 22.6602C75.5461 22.6602 75.9855 22.5664 76.5363 22.3789V25.8066C75.5402 26.123 74.5852 26.2812 73.6711 26.2812C72.593 26.2812 71.673 26.1055 70.9113 25.7539C70.1496 25.4023 69.5109 24.875 68.9953 24.1719C67.8234 24.9336 66.757 25.4785 65.7961 25.8066C64.8469 26.123 63.927 26.2812 63.0363 26.2812C61.3605 26.2812 60.007 25.8125 58.9758 24.875C57.9445 23.9258 57.4289 22.7598 57.4289 21.377C57.4289 20.5918 57.6047 19.8711 57.9562 19.2148C58.3195 18.5586 58.8527 17.9844 59.5559 17.4922C60.2707 17 61.3664 16.5664 62.843 16.1914C64.3312 15.8047 66.1359 15.5293 68.257 15.3652ZM68.257 18.2832C66.7219 18.5059 65.6379 18.7344 65.0051 18.9688C64.3723 19.1914 63.9211 19.4785 63.6516 19.8301C63.382 20.1699 63.2473 20.5215 63.2473 20.8848C63.2473 21.3535 63.423 21.7461 63.7746 22.0625C64.1262 22.3789 64.6008 22.5371 65.1984 22.5371C65.5852 22.5371 66.0305 22.4375 66.5344 22.2383C67.05 22.0391 67.6242 21.7461 68.257 21.3594V18.2832ZM86.7098 8.03516V10.584C87.6473 9.59961 88.4559 8.93164 89.1355 8.58008C89.827 8.2168 90.4891 8.03516 91.1219 8.03516C91.6961 8.03516 92.2059 8.16992 92.6512 8.43945C93.1082 8.69727 93.4656 9.07227 93.7234 9.56445C93.993 10.0566 94.1277 10.584 94.1277 11.1465C94.1277 11.8848 93.8816 12.5527 93.3895 13.1504C92.909 13.748 92.2293 14.0469 91.3504 14.0469C91.116 14.0469 90.9051 14.0293 90.7176 13.9941C90.5418 13.959 90.1609 13.8418 89.575 13.6426C89.2703 13.5488 89.0184 13.502 88.8191 13.502C88.5145 13.502 88.0105 13.6953 87.3074 14.082V20.9551C87.3074 21.541 87.3484 21.9219 87.4305 22.0977C87.5242 22.2734 87.6707 22.4023 87.8699 22.4844C88.0691 22.5664 88.5027 22.6074 89.1707 22.6074H89.9441V26H79.0984V22.6074H79.9949C80.6395 22.6074 81.0379 22.5723 81.1902 22.502C81.3543 22.4316 81.4773 22.3086 81.5594 22.1328C81.6414 21.957 81.6824 21.5645 81.6824 20.9551V12.8867H79.0984V9.51172C81.0086 9.39453 82.9949 8.90234 85.0574 8.03516H86.7098ZM103.686 8.03516V10.373C105.01 9.4707 106.141 8.85547 107.079 8.52734C108.028 8.19922 108.995 8.03516 109.979 8.03516C111.116 8.03516 112.118 8.27539 112.985 8.75586C113.864 9.23633 114.502 9.83984 114.901 10.5664C115.299 11.2812 115.498 12.3008 115.498 13.625V20.9375C115.498 21.5586 115.539 21.957 115.621 22.1328C115.715 22.3086 115.856 22.4375 116.043 22.5195C116.184 22.5781 116.606 22.6074 117.309 22.6074H118.17V26H107.852V22.6074C108.637 22.5957 109.077 22.5781 109.17 22.5547C109.463 22.4727 109.657 22.3379 109.75 22.1504C109.844 21.9629 109.891 21.5586 109.891 20.9375V14.4863C109.891 13.6543 109.803 13.1152 109.627 12.8691C109.346 12.459 108.901 12.2539 108.291 12.2539C107.787 12.2539 107.248 12.3652 106.674 12.5879C106.1 12.8105 105.327 13.2676 104.354 13.959V20.9375C104.354 21.6992 104.436 22.168 104.6 22.3438C104.764 22.5195 105.157 22.6074 105.778 22.6074H106.34V26H96.1273V22.6074H96.6371C97.4457 22.6074 97.9437 22.5723 98.1312 22.502C98.3305 22.4316 98.477 22.3086 98.5707 22.1328C98.6762 21.957 98.7289 21.6113 98.7289 21.0957V12.9043H96.1273V9.51172C98.2367 9.25391 100.211 8.76172 102.051 8.03516H103.686ZM0.987503 43.4785H8.51094L19.673 61.8652V47.873C19.673 47.041 19.591 46.4434 19.427 46.0801C19.2629 45.7168 19.0168 45.4414 18.6887 45.2539C18.3605 45.0664 17.8742 44.9727 17.2297 44.9727H16.5969V43.4785H24.8059V44.9727H24.3664C23.6398 44.9727 23.1477 45.0312 22.8898 45.1484C22.5266 45.3125 22.2512 45.6113 22.0637 46.0449C21.8879 46.4785 21.8 47.0879 21.8 47.873V68H19.673L6.22578 45.9043V63.4121C6.22578 64.3848 6.25508 64.9766 6.31367 65.1875C6.39571 65.457 6.54219 65.7031 6.75313 65.9258C6.97578 66.1484 7.2336 66.3008 7.52657 66.3828C7.81953 66.4648 8.41133 66.5117 9.30196 66.5234V68H0.987503V66.5234H1.42696C2.27071 66.5234 2.83907 66.4414 3.13203 66.2773C3.43672 66.1133 3.6711 65.832 3.83516 65.4336C3.99922 65.0352 4.08125 64.3613 4.08125 63.4121V47.873C4.08125 46.9004 4.05782 46.3086 4.01094 46.0977C3.90547 45.6992 3.70039 45.4121 3.39571 45.2363C3.10274 45.0605 2.51094 44.9727 1.62032 44.9727H0.987503V43.4785ZM26.8406 51.0371L33.5027 50.7734V62.0938C33.5027 63.0898 33.6375 63.8809 33.907 64.4668C34.1883 65.0527 34.6102 65.5098 35.1727 65.8379C35.7469 66.1543 36.4148 66.3125 37.1766 66.3125C38.1141 66.3125 39.1746 66.0605 40.3582 65.5566C41.5535 65.0527 42.743 64.3027 43.9266 63.3066V55.1152C43.9266 54.248 43.8621 53.6797 43.7332 53.4102C43.6043 53.1406 43.3758 52.9238 43.0477 52.7598C42.7195 52.5957 42.2039 52.5137 41.5008 52.5137H40.2176V51.0371L46.8797 50.7734V63.8867C46.8797 64.7305 46.95 65.3164 47.0906 65.6445C47.2313 65.9609 47.4363 66.1895 47.7059 66.3301C47.9871 66.459 48.5438 66.5234 49.3758 66.5234H49.9207V68L44.0848 68.2988V65.0469C42.4793 66.3242 41.0789 67.209 39.8836 67.7012C38.6883 68.1816 37.4754 68.4219 36.2449 68.4219C35.3309 68.4219 34.534 68.2988 33.8543 68.0527C33.1863 67.8066 32.5945 67.4375 32.0789 66.9453C31.575 66.4531 31.1883 65.8613 30.9188 65.1699C30.6492 64.4785 30.5145 63.7402 30.5145 62.9551V54.957C30.5145 54.2422 30.45 53.7441 30.3211 53.4629C30.1922 53.1699 29.9754 52.9414 29.6707 52.7773C29.3777 52.6016 28.9734 52.5137 28.4578 52.5137H26.8406V51.0371ZM68.2328 63.0957L69.3578 64.0098C67.1547 66.9512 64.5121 68.4219 61.4301 68.4219C59.0277 68.4219 57.0004 67.5664 55.348 65.8555C53.6957 64.1445 52.8695 62.0176 52.8695 59.4746C52.8695 57.7754 53.2504 56.252 54.0121 54.9043C54.7855 53.5449 55.852 52.4902 57.2113 51.7402C58.5824 50.9902 60.1527 50.6152 61.9223 50.6152C63.9379 50.6152 65.6195 51.1133 66.9672 52.1094C68.3148 53.0938 68.9887 54.0898 68.9887 55.0977C68.9887 55.6367 68.8305 56.0527 68.5141 56.3457C68.1977 56.6387 67.8402 56.7852 67.4418 56.7852C67.2309 56.7852 67.0258 56.7324 66.8266 56.627C66.6273 56.5215 66.4223 56.3516 66.2113 56.1172C66.1176 56.0117 65.9477 55.6836 65.7016 55.1328C65.3852 54.4531 65.1391 53.9961 64.9633 53.7617C64.6 53.293 64.1488 52.9238 63.6098 52.6543C63.0824 52.3848 62.4906 52.25 61.8344 52.25C60.8383 52.25 59.9125 52.5254 59.057 53.0762C58.2133 53.627 57.5395 54.4414 57.0355 55.5195C56.5434 56.5859 56.2973 57.8633 56.2973 59.3516C56.2973 61.6602 56.9125 63.4941 58.143 64.8535C59.2094 66.0254 60.4809 66.6113 61.9574 66.6113C62.6371 66.6113 63.3227 66.5 64.0141 66.2773C64.7172 66.043 65.3793 65.7031 66.0004 65.2578C66.4574 64.9414 67.2016 64.2207 68.2328 63.0957ZM71.6387 45.1309V43.6895C73.2324 43.5723 74.7852 43.0801 76.2969 42.2129H77.5977V63.8516C77.5977 64.7656 77.6562 65.3398 77.7734 65.5742C77.9258 65.9023 78.1484 66.1426 78.4414 66.2949C78.7344 66.4473 79.2969 66.5234 80.1289 66.5234H80.6914V68H71.6387V66.5234H72.5527C73.127 66.5234 73.5547 66.4355 73.8359 66.2598C74.1289 66.084 74.334 65.8438 74.4512 65.5391C74.5801 65.2344 74.6445 64.625 74.6445 63.7109V45.1309H71.6387ZM87.3668 42.6875C87.9293 42.6875 88.4098 42.8867 88.8082 43.2852C89.2066 43.6719 89.4059 44.1465 89.4059 44.709C89.4059 45.2715 89.2066 45.752 88.8082 46.1504C88.4098 46.5488 87.9293 46.748 87.3668 46.748C86.8043 46.748 86.3238 46.5488 85.9254 46.1504C85.527 45.752 85.3277 45.2715 85.3277 44.709C85.3277 44.1465 85.527 43.6719 85.9254 43.2852C86.3238 42.8867 86.8043 42.6875 87.3668 42.6875ZM82.8844 53.5684V52.1094C83.857 51.9922 84.6715 51.8281 85.3277 51.6172C85.9957 51.4062 86.7516 51.0723 87.5953 50.6152H88.8785V64.7129C88.8785 65.2051 88.9488 65.5742 89.0895 65.8203C89.2301 66.0664 89.4234 66.248 89.6695 66.3652C89.9273 66.4707 90.3902 66.5234 91.0582 66.5234H91.8844V68H82.8844V66.5234H83.6051C84.3902 66.5234 84.9176 66.4531 85.1871 66.3125C85.4566 66.1719 85.6441 65.9727 85.7496 65.7148C85.8668 65.457 85.9254 64.8535 85.9254 63.9043V53.5684H82.8844ZM93.2688 51.0371L99.9309 50.7734V62.0938C99.9309 63.0898 100.066 63.8809 100.335 64.4668C100.616 65.0527 101.038 65.5098 101.601 65.8379C102.175 66.1543 102.843 66.3125 103.605 66.3125C104.542 66.3125 105.603 66.0605 106.786 65.5566C107.982 65.0527 109.171 64.3027 110.355 63.3066V55.1152C110.355 54.248 110.29 53.6797 110.161 53.4102C110.032 53.1406 109.804 52.9238 109.476 52.7598C109.148 52.5957 108.632 52.5137 107.929 52.5137H106.646V51.0371L113.308 50.7734V63.8867C113.308 64.7305 113.378 65.3164 113.519 65.6445C113.659 65.9609 113.864 66.1895 114.134 66.3301C114.415 66.459 114.972 66.5234 115.804 66.5234H116.349V68L110.513 68.2988V65.0469C108.907 66.3242 107.507 67.209 106.312 67.7012C105.116 68.1816 103.904 68.4219 102.673 68.4219C101.759 68.4219 100.962 68.2988 100.282 68.0527C99.6145 67.8066 99.0227 67.4375 98.507 66.9453C98.0031 66.4531 97.6164 65.8613 97.3469 65.1699C97.0773 64.4785 96.9426 63.7402 96.9426 62.9551V54.957C96.9426 54.2422 96.8781 53.7441 96.7492 53.4629C96.6203 53.1699 96.4035 52.9414 96.0988 52.7773C95.8059 52.6016 95.4016 52.5137 94.8859 52.5137H93.2688V51.0371ZM131.022 51.0371H132.253L133.835 56.416L132.253 56.9434C131.62 55.502 130.729 54.3711 129.581 53.5508C128.444 52.7188 127.29 52.3027 126.118 52.3027C125.216 52.3027 124.483 52.5254 123.921 52.9707C123.358 53.4043 123.077 53.9082 123.077 54.4824C123.077 55.0215 123.282 55.4844 123.692 55.8711C124.091 56.2695 124.987 56.7207 126.382 57.2246L129.809 58.4375C131.743 59.1289 133.061 59.8672 133.764 60.6523C134.456 61.4492 134.802 62.3516 134.802 63.3594C134.802 64.2148 134.544 65.041 134.028 65.8379C133.513 66.623 132.763 67.25 131.778 67.7188C130.805 68.1875 129.686 68.4219 128.421 68.4219C126.452 68.4219 124.764 67.8594 123.358 66.7344L122.989 68H121.741L119.544 62.252L121.143 61.6191C122.21 63.3066 123.218 64.502 124.167 65.2051C125.491 66.2012 126.921 66.6992 128.456 66.6992C129.475 66.6992 130.313 66.4297 130.97 65.8906C131.626 65.3398 131.954 64.7305 131.954 64.0625C131.954 63.5117 131.749 63.0078 131.339 62.5508C130.917 62.1055 130.108 61.6719 128.913 61.25L124.852 59.7734C123.106 59.1406 121.893 58.4492 121.214 57.6992C120.534 56.9492 120.194 56.0879 120.194 55.1152C120.194 53.9316 120.745 52.8887 121.846 51.9863C122.96 51.0723 124.372 50.6152 126.083 50.6152C126.973 50.6152 127.77 50.7324 128.473 50.9668C129.177 51.1895 129.868 51.5645 130.548 52.0918L131.022 51.0371Z"/></svg>