<svg xmlns="http://www.w3.org/2000/svg" width="24" height="24" fill="currentColor" viewBox="0 0 24 24"><path fill="currentColor" d="M22.847 14.7984L20.8501 13.6453C21.0516 12.5578 21.0516 11.4422 20.8501 10.3547L22.847 9.20156C23.0766 9.07031 23.1798 8.79843 23.1048 8.54531C22.5845 6.87656 21.6985 5.36718 20.5407 4.11093C20.3626 3.91874 20.072 3.87187 19.847 4.00312L17.8501 5.15624C17.011 4.43437 16.0454 3.87656 15.0001 3.51093V1.20937C15.0001 0.94687 14.8173 0.717183 14.5595 0.660933C12.8391 0.276558 11.0766 0.295308 9.44071 0.660933C9.1829 0.717183 9.00009 0.94687 9.00009 1.20937V3.51562C7.95946 3.88593 6.99384 4.44374 6.15009 5.16093L4.1579 4.00781C3.92821 3.87656 3.64228 3.91875 3.46415 4.11562C2.30634 5.36718 1.4204 6.87656 0.900092 8.54999C0.820404 8.80312 0.928217 9.07499 1.1579 9.20624L3.15478 10.3594C2.95322 11.4469 2.95322 12.5625 3.15478 13.65L1.1579 14.8031C0.928217 14.9344 0.825092 15.2062 0.900092 15.4594C1.4204 17.1281 2.30634 18.6375 3.46415 19.8937C3.64228 20.0859 3.9329 20.1328 4.1579 20.0016L6.15478 18.8484C6.99384 19.5703 7.95946 20.1281 9.00478 20.4937V22.8C9.00478 23.0625 9.18759 23.2922 9.4454 23.3484C11.1657 23.7328 12.9282 23.7141 14.5641 23.3484C14.822 23.2922 15.0048 23.0625 15.0048 22.8V20.4937C16.0454 20.1234 17.011 19.5656 17.8548 18.8484L19.8516 20.0016C20.0813 20.1328 20.3673 20.0906 20.5454 19.8937C21.7032 18.6422 22.5891 17.1328 23.1095 15.4594C23.1798 15.2016 23.0766 14.9297 22.847 14.7984ZM12.0001 15.75C9.9329 15.75 8.25009 14.0672 8.25009 12C8.25009 9.93281 9.9329 8.24999 12.0001 8.24999C14.0673 8.24999 15.7501 9.93281 15.7501 12C15.7501 14.0672 14.0673 15.75 12.0001 15.75Z" opacity=".4"/></svg>